<svg width="16" height="16" viewBox="0 0 16 16" fill="none" xmlns="http://www.w3.org/2000/svg">
<path d="M12 7.5H13.6938C13.786 7.50021 13.8765 7.47455 13.9549 7.42594C14.0334 7.37734 14.0966 7.30772 14.1375 7.225L15.2875 4.925C15.3445 4.80981 15.3555 4.67727 15.3184 4.55424C15.2812 4.43122 15.1987 4.32692 15.0875 4.2625L12 2.5" stroke="#FC6421" stroke-linecap="round" stroke-linejoin="round"/>
<path d="M3.99999 7.5H2.30625C2.21397 7.50021 2.12349 7.47455 2.04505 7.42594C1.96662 7.37734 1.90338 7.30772 1.8625 7.225L0.712495 4.925C0.65552 4.80981 0.644483 4.67727 0.681622 4.55424C0.718762 4.43122 0.801298 4.32692 0.912495 4.2625L3.99999 2.5" stroke="#FC6421" stroke-linecap="round" stroke-linejoin="round"/>
<path d="M10 2.5C10 3.03043 9.78929 3.53914 9.41421 3.91421C9.03914 4.28929 8.53043 4.5 8 4.5C7.46957 4.5 6.96086 4.28929 6.58579 3.91421C6.21071 3.53914 6 3.03043 6 2.5H4V13C4 13.1326 4.05268 13.2598 4.14645 13.3536C4.24021 13.4473 4.36739 13.5 4.5 13.5H11.5C11.6326 13.5 11.7598 13.4473 11.8536 13.3536C11.9473 13.2598 12 13.1326 12 13V2.5H10Z" stroke="#FC6421" stroke-linecap="round" stroke-linejoin="round"/>
</svg>
