<svg width="16" height="16" viewBox="0 0 16 16" fill="none" xmlns="http://www.w3.org/2000/svg">
<path d="M8.66875 10.9688L7.46875 14.225C7.43323 14.3207 7.36928 14.4032 7.28548 14.4615C7.20169 14.5198 7.10206 14.551 7 14.551C6.89793 14.551 6.79831 14.5198 6.71451 14.4615C6.63072 14.4032 6.56677 14.3207 6.53125 14.225L5.33125 10.9688C5.30592 10.9 5.26598 10.8376 5.21419 10.7858C5.1624 10.734 5.09998 10.6941 5.03125 10.6688L1.775 9.46876C1.67931 9.43324 1.59678 9.36929 1.5385 9.2855C1.48023 9.2017 1.44899 9.10208 1.44899 9.00001C1.44899 8.89794 1.48023 8.79832 1.5385 8.71453C1.59678 8.63073 1.67931 8.56678 1.775 8.53126L5.03125 7.33126C5.09998 7.30594 5.1624 7.266 5.21419 7.21421C5.26598 7.16241 5.30592 7.09999 5.33125 7.03126L6.53125 3.77501C6.56677 3.67932 6.63072 3.5968 6.71451 3.53852C6.79831 3.48024 6.89793 3.44901 7 3.44901C7.10206 3.44901 7.20169 3.48024 7.28548 3.53852C7.36928 3.5968 7.43323 3.67932 7.46875 3.77501L8.66875 7.03126C8.69407 7.09999 8.73401 7.16241 8.7858 7.21421C8.8376 7.266 8.90002 7.30594 8.96875 7.33126L12.225 8.53126C12.3207 8.56678 12.4032 8.63073 12.4615 8.71453C12.5198 8.79832 12.551 8.89794 12.551 9.00001C12.551 9.10208 12.5198 9.2017 12.4615 9.2855C12.4032 9.36929 12.3207 9.43324 12.225 9.46876L8.96875 10.6688C8.90002 10.6941 8.8376 10.734 8.7858 10.7858C8.73401 10.8376 8.69407 10.9 8.66875 10.9688V10.9688Z" stroke="#FC6421" stroke-linecap="round" stroke-linejoin="round"/>
<path d="M11 1V4" stroke="#FC6421" stroke-linecap="round" stroke-linejoin="round"/>
<path d="M12.5 2.5H9.5" stroke="#FC6421" stroke-linecap="round" stroke-linejoin="round"/>
<path d="M14 4.5V6.5" stroke="#FC6421" stroke-linecap="round" stroke-linejoin="round"/>
<path d="M15 5.5H13" stroke="#FC6421" stroke-linecap="round" stroke-linejoin="round"/>
</svg>
