<svg width="16" height="16" viewBox="0 0 16 16" fill="none" xmlns="http://www.w3.org/2000/svg">
<path d="M8 13.5C8 13.5 1.75 10 1.75 5.75C1.75 4.99868 2.01031 4.27056 2.48664 3.68953C2.96297 3.10851 3.62589 2.71046 4.36262 2.56311C5.09935 2.41576 5.86438 2.52822 6.52754 2.88135C7.1907 3.23448 7.71103 3.80647 8 4.5V4.5C8.28897 3.80647 8.8093 3.23448 9.47246 2.88135C10.1356 2.52822 10.9006 2.41576 11.6374 2.56311C12.3741 2.71046 13.037 3.10851 13.5134 3.68953C13.9897 4.27056 14.25 4.99868 14.25 5.75C14.25 10 8 13.5 8 13.5Z" stroke="white" stroke-linecap="round" stroke-linejoin="round"/>
</svg>
