<svg width="65" height="25" viewBox="0 0 65 25" fill="none" xmlns="http://www.w3.org/2000/svg">
<path d="M9.52 10.76V19.44H10.36V20H6.58V19.44H7.42V16.178H3.92V19.44H4.76V20H0.98V19.44H1.82V10.76H0.98V10.2H4.76V10.76H3.92V15.548H7.42V10.76H6.58V10.2H10.36V10.76H9.52ZM15.17 13.644V18.446C15.17 18.7353 15.2587 18.9593 15.436 19.118C15.6133 19.2767 15.8607 19.356 16.178 19.356C16.4953 19.356 16.8033 19.2253 17.102 18.964C17.4007 18.7027 17.55 18.362 17.55 17.942V13H19.65V18.446C19.65 18.698 19.7107 18.8987 19.832 19.048C19.9533 19.188 20.14 19.258 20.392 19.258C20.644 19.258 20.9333 19.1227 21.26 18.852L21.512 19.188C20.7653 19.8693 20.0047 20.21 19.23 20.21C18.4553 20.21 17.942 19.8647 17.69 19.174C17.326 19.5567 16.948 19.8273 16.556 19.986C16.1733 20.1353 15.6787 20.21 15.072 20.21C14.4747 20.21 13.9893 20.028 13.616 19.664C13.252 19.2907 13.07 18.7867 13.07 18.152V13.462C12.5567 13.5927 12.1647 13.8213 11.894 14.148L11.516 13.714C11.7867 13.434 12.1273 13.21 12.538 13.042C12.958 12.874 13.3687 12.79 13.77 12.79C14.1807 12.79 14.5167 12.874 14.778 13.042C15.0393 13.2007 15.17 13.4013 15.17 13.644ZM13.91 11.376C13.7047 11.1707 13.602 10.9187 13.602 10.62C13.602 10.3213 13.7047 10.0693 13.91 9.864C14.1153 9.65867 14.3673 9.556 14.666 9.556C14.9647 9.556 15.2167 9.65867 15.422 9.864C15.6273 10.0693 15.73 10.3213 15.73 10.62C15.73 10.9187 15.6273 11.1707 15.422 11.376C15.2167 11.5813 14.9647 11.684 14.666 11.684C14.3673 11.684 14.1153 11.5813 13.91 11.376ZM17.13 11.376C16.9247 11.1707 16.822 10.9187 16.822 10.62C16.822 10.3213 16.9247 10.0693 17.13 9.864C17.3353 9.65867 17.5873 9.556 17.886 9.556C18.1847 9.556 18.4367 9.65867 18.642 9.864C18.8473 10.0693 18.95 10.3213 18.95 10.62C18.95 10.9187 18.8473 11.1707 18.642 11.376C18.4367 11.5813 18.1847 11.684 17.886 11.684C17.5873 11.684 17.3353 11.5813 17.13 11.376ZM22.9684 13C23.7338 13 24.4244 13.2333 25.0404 13.7C25.3951 13.364 25.7591 13.1307 26.1324 13C26.5058 12.86 26.9818 12.79 27.5604 12.79C28.1484 12.79 28.6244 12.9767 28.9884 13.35C29.3618 13.714 29.5484 14.2133 29.5484 14.848V18.446C29.5484 18.698 29.6091 18.8987 29.7304 19.048C29.8518 19.188 30.0384 19.258 30.2904 19.258C30.5424 19.258 30.8318 19.1227 31.1584 18.852L31.4104 19.188C30.6638 19.8693 29.9171 20.21 29.1704 20.21C28.0224 20.21 27.4484 19.524 27.4484 18.152V14.554C27.4484 14.2647 27.3598 14.0407 27.1824 13.882C27.0051 13.7233 26.7578 13.644 26.4404 13.644C26.1324 13.644 25.8244 13.77 25.5164 14.022C25.2178 14.274 25.0684 14.6007 25.0684 15.002V20H22.9684V13.56C22.5484 13.56 22.1751 13.63 21.8484 13.77L21.6524 13.252C22.0538 13.084 22.4924 13 22.9684 13ZM39.2789 13V18.446C39.2789 18.698 39.3395 18.8987 39.4609 19.048C39.5822 19.188 39.7689 19.258 40.0209 19.258C40.2729 19.258 40.5622 19.1227 40.8889 18.852L41.1409 19.188C40.3942 19.8693 39.6475 20.21 38.9009 20.21C38.0142 20.21 37.4682 19.7947 37.2629 18.964C36.7775 19.7947 36.0635 20.21 35.1209 20.21C34.0475 20.21 33.2309 19.8647 32.6709 19.174C32.1109 18.474 31.8309 17.5873 31.8309 16.514C31.8309 15.4313 32.1295 14.54 32.7269 13.84C33.3335 13.14 34.1782 12.79 35.2609 12.79C36.0915 12.79 36.7309 13.1213 37.1789 13.784V13H39.2789ZM34.3929 14.372C34.1315 14.8947 34.0009 15.604 34.0009 16.5C34.0009 17.396 34.1315 18.1053 34.3929 18.628C34.6542 19.1507 35.0509 19.412 35.5829 19.412C36.1242 19.412 36.5349 19.1507 36.8149 18.628C37.1042 18.096 37.2489 17.3867 37.2489 16.5C37.2489 15.6133 37.1042 14.9087 36.8149 14.386C36.5349 13.854 36.1242 13.588 35.5829 13.588C35.0509 13.588 34.6542 13.8493 34.3929 14.372ZM33.6229 11.376C33.4175 11.1707 33.3149 10.9187 33.3149 10.62C33.3149 10.3213 33.4175 10.0693 33.6229 9.864C33.8282 9.65867 34.0802 9.556 34.3789 9.556C34.6775 9.556 34.9295 9.65867 35.1349 9.864C35.3402 10.0693 35.4429 10.3213 35.4429 10.62C35.4429 10.9187 35.3402 11.1707 35.1349 11.376C34.9295 11.5813 34.6775 11.684 34.3789 11.684C34.0802 11.684 33.8282 11.5813 33.6229 11.376ZM36.8429 11.376C36.6375 11.1707 36.5349 10.9187 36.5349 10.62C36.5349 10.3213 36.6375 10.0693 36.8429 9.864C37.0482 9.65867 37.3002 9.556 37.5989 9.556C37.8975 9.556 38.1495 9.65867 38.3549 9.864C38.5602 10.0693 38.6629 10.3213 38.6629 10.62C38.6629 10.9187 38.5602 11.1707 38.3549 11.376C38.1495 11.5813 37.8975 11.684 37.5989 11.684C37.3002 11.684 37.0482 11.5813 36.8429 11.376ZM46.3672 12.79C46.6472 12.79 46.7872 13.056 46.7872 13.588V18.446C46.7872 18.698 46.8479 18.8987 46.9692 19.048C47.0906 19.188 47.2772 19.258 47.5292 19.258C47.7812 19.258 48.0706 19.1227 48.3972 18.852L48.6492 19.188C47.9026 19.8693 47.1559 20.21 46.4092 20.21C45.2612 20.21 44.6872 19.524 44.6872 18.152V14.218C44.2486 14.3953 43.7166 14.5167 43.0912 14.582C43.0166 15.4407 42.7692 16.2993 42.3492 17.158L41.7752 16.99C42.0366 16.3273 42.1766 15.5387 42.1952 14.624C41.8406 14.624 41.5512 14.5213 41.3272 14.316C41.1126 14.1107 41.0052 13.8587 41.0052 13.56C41.0052 13.252 41.1079 12.9953 41.3132 12.79C41.5279 12.5753 41.7846 12.468 42.0832 12.468C42.3912 12.468 42.6479 12.5753 42.8532 12.79C43.0586 13.0047 43.1612 13.28 43.1612 13.616H43.4272C44.1646 13.616 44.9486 13.4107 45.7792 13C46.0499 12.86 46.2459 12.79 46.3672 12.79ZM48.3711 10.214C48.6418 9.934 48.9824 9.71 49.3931 9.542C49.8131 9.374 50.2238 9.29 50.6251 9.29C51.0358 9.29 51.3718 9.374 51.6331 9.542C51.8944 9.70067 52.0251 9.90133 52.0251 10.144V18.446C52.0251 18.698 52.0858 18.8987 52.2071 19.048C52.3284 19.188 52.5151 19.258 52.7671 19.258C53.0191 19.258 53.3084 19.1227 53.6351 18.852L53.8871 19.188C53.1404 19.8693 52.3938 20.21 51.6471 20.21C50.4991 20.21 49.9251 19.524 49.9251 18.152V9.962C49.4118 10.0927 49.0198 10.3213 48.7491 10.648L48.3711 10.214ZM55.7634 11.418C55.5488 11.194 55.4414 10.928 55.4414 10.62C55.4414 10.312 55.5488 10.0507 55.7634 9.836C55.9874 9.612 56.2534 9.5 56.5614 9.5C56.8694 9.5 57.1308 9.612 57.3454 9.836C57.5694 10.0507 57.6814 10.312 57.6814 10.62C57.6814 10.928 57.5694 11.194 57.3454 11.418C57.1308 11.6327 56.8694 11.74 56.5614 11.74C56.2534 11.74 55.9874 11.6327 55.7634 11.418ZM56.2954 12.79C57.1728 12.79 57.6114 13.168 57.6114 13.924V18.446C57.6114 18.698 57.6721 18.8987 57.7934 19.048C57.9148 19.188 58.1014 19.258 58.3534 19.258C58.6054 19.258 58.8948 19.1227 59.2214 18.852L59.4734 19.188C58.7268 19.8693 57.9801 20.21 57.2334 20.21C56.0854 20.21 55.5114 19.524 55.5114 18.152V13.462C54.9981 13.5927 54.6061 13.8213 54.3354 14.148L53.9574 13.714C54.2281 13.434 54.5688 13.21 54.9794 13.042C55.3994 12.874 55.8381 12.79 56.2954 12.79Z" fill="black"/>
<path d="M60 8.75C62.0711 8.75 63.75 7.07107 63.75 5C63.75 2.92893 62.0711 1.25 60 1.25C57.9289 1.25 56.25 2.92893 56.25 5C56.25 7.07107 57.9289 8.75 60 8.75Z" stroke="#101828" stroke-linecap="round" stroke-linejoin="round"/>
<path d="M59.0625 5.3125H60.3125C60.5611 5.3125 60.7996 5.21373 60.9754 5.03791C61.1512 4.8621 61.25 4.62364 61.25 4.375C61.25 4.12636 61.1512 3.8879 60.9754 3.71209C60.7996 3.53627 60.5611 3.4375 60.3125 3.4375H59.0625V6.5625" stroke="#101828" stroke-linecap="round" stroke-linejoin="round"/>
<path d="M60.375 5.30859L61.25 6.5625" stroke="#101828" stroke-linecap="round" stroke-linejoin="round"/>
</svg>
