<svg width="24" height="24" viewBox="0 0 24 24" fill="none" xmlns="http://www.w3.org/2000/svg">
<path d="M8.25 21.75H15.75" stroke="#B9BCBE" stroke-width="1.5" stroke-linecap="round" stroke-linejoin="round"/>
<path d="M12 18.75V13.5" stroke="#B9BCBE" stroke-width="1.5" stroke-linecap="round" stroke-linejoin="round"/>
<path d="M9 10.5L12 13.5L15 10.5" stroke="#B9BCBE" stroke-width="1.5" stroke-linecap="round" stroke-linejoin="round"/>
<path d="M7.3782 15.6562C6.48532 14.962 5.76216 14.0736 5.26351 13.0584C4.76485 12.0432 4.50378 10.9279 4.50008 9.79685C4.48133 5.7281 7.7532 2.34372 11.822 2.24997C13.3966 2.21264 14.9431 2.67204 16.242 3.563C17.541 4.45397 18.5264 5.73127 19.0586 7.21377C19.5908 8.69626 19.6428 10.3087 19.2071 11.8224C18.7714 13.336 17.8702 14.6741 16.6313 15.6468C16.3577 15.8584 16.136 16.1297 15.9832 16.4401C15.8305 16.7504 15.7507 17.0916 15.7501 17.4375V18C15.7501 18.1989 15.6711 18.3896 15.5304 18.5303C15.3898 18.671 15.199 18.75 15.0001 18.75H9.00008C8.80117 18.75 8.6104 18.671 8.46975 18.5303C8.3291 18.3896 8.25008 18.1989 8.25008 18V17.4375C8.24773 17.0942 8.16814 16.7558 8.01721 16.4474C7.86628 16.1391 7.64788 15.8687 7.3782 15.6562V15.6562Z" stroke="#B9BCBE" stroke-width="1.5" stroke-linecap="round" stroke-linejoin="round"/>
</svg>
